<svg xmlns="http://www.w3.org/2000/svg" width="21.333" height="21.333" preserveAspectRatio="xMidYMid meet" version="1.0" viewBox="0 0 900 900"><metadata>Created by potrace 1.15, written by Peter Selinger 2001-2017</metadata><g fill="#000" stroke="none"><path d="M4055 8984 c-1075 -110 -2044 -577 -2790 -1346 -346 -356 -604 -724 -821 -1173 -215 -445 -346 -888 -415 -1405 -26 -198 -37 -710 -20 -923 49 -593 200 -1134 462 -1657 232 -464 511 -845 885 -1210 704 -687 1588 -1111 2584 -1241 235 -30 733 -38 980 -14 243 23 691 103 716 128 4 4 -198 693 -246 838 -8 26 -5 28 98 82 124 63 190 87 323 117 95 20 96 21 166 88 127 122 136 159 125 522 -8 240 -10 270 -30 314 -29 64 -28 92 3 112 23 15 27 15 50 0 44 -29 59 -72 58 -161 -7 -319 -11 -283 45 -499 29 -109 52 -218 52 -241 0 -35 -19 -83 -95 -236 -52 -106 -94 -193 -92 -194 5 -5 2089 143 2094 149 3 3 -65 111 -152 240 l-158 235 70 83 c561 667 907 1460 1024 2348 31 234 38 731 14 980 -169 1789 -1367 3297 -3065 3857 -267 88 -552 152 -860 194 -206 28 -790 36 -1005 13z m475 -1061 c34 -93 130 -366 212 -608 156 -459 247 -711 328 -905 76 -181 169 -372 179 -368 6 1 72 71 147 153 75 83 148 162 162 177 l24 27 -22 31 c-12 17 -24 49 -27 70 -3 22 -9 40 -13 40 -3 0 -53 -50 -111 -112 l-104 -112 -12 55 c-7 30 -15 72 -18 94 l-7 40 89 71 89 71 -7 79 c-10 108 -29 228 -39 243 -5 9 -37 -2 -117 -42 l-109 -55 -33 121 c-18 67 -53 186 -77 264 -24 78 -44 148 -44 156 0 9 30 19 93 30 97 18 278 40 283 34 2 -2 26 -106 53 -233 64 -296 113 -489 163 -642 l40 -124 25 24 c14 12 43 44 65 71 l40 47 -17 42 c-17 43 -15 77 7 147 l11 34 12 -37 c14 -41 51 -86 71 -86 7 0 159 167 339 370 179 204 329 370 332 370 3 0 58 -39 121 -86 769 -578 1257 -1406 1404 -2384 25 -172 36 -610 19 -798 -45 -494 -196 -995 -427 -1417 -56 -103 -236 -382 -292 -453 l-18 -23 -158 236 c-88 130 -162 237 -165 239 -3 2 -150 -291 -326 -652 -223 -456 -321 -648 -323 -631 -2 13 -22 78 -44 144 l-41 120 9 115 c16 230 -1 328 -76 432 -22 31 -40 60 -40 65 0 5 32 40 71 78 90 89 149 172 198 277 40 85 124 337 162 486 14 56 37 109 72 165 71 117 106 197 113 264 6 47 25 93 104 243 54 102 100 194 104 205 3 11 12 81 21 155 8 74 22 160 31 190 8 30 18 111 21 180 4 109 1 149 -26 313 l-31 189 37 216 c28 164 37 246 37 337 1 143 -10 171 -101 256 l-59 54 28 89 c41 128 45 190 16 246 -13 25 -41 57 -65 74 -35 25 -54 30 -113 33 -45 2 -84 10 -109 23 -94 47 -180 34 -252 -39 -25 -25 -52 -56 -61 -69 -15 -21 -16 -22 -58 -7 -112 39 -186 -2 -359 -202 -45 -51 -170 -164 -335 -302 -326 -272 -377 -319 -429 -395 -22 -34 -88 -123 -146 -199 l-106 -138 -18 92 c-28 143 -97 258 -164 274 -19 4 -45 28 -78 71 -27 35 -53 64 -58 64 -5 0 -55 -48 -112 -107 -56 -60 -105 -106 -107 -103 -3 3 -40 49 -83 104 l-78 98 83 83 83 84 -28 43 c-80 122 -249 358 -256 358 -5 0 -52 -36 -105 -81 -53 -44 -100 -77 -104 -72 -4 4 -103 127 -220 273 -117 146 -233 288 -256 316 l-43 50 92 66 c51 36 129 88 173 116 l81 51 59 -87 c364 -536 686 -921 963 -1151 l64 -53 62 69 63 68 -43 120 c-200 561 -532 1358 -858 2060 l-74 160 36 6 c20 4 37 6 37 5 18 -19 182 -386 390 -869 101 -235 225 -516 275 -625 134 -293 349 -702 369 -702 12 0 120 119 120 132 0 6 -20 47 -44 92 -120 220 -257 547 -490 1164 -133 351 -265 688 -323 820 -4 9 11 12 54 12 l60 0 63 -167z m-638 -295 c230 -436 442 -860 558 -1113 73 -159 96 -214 165 -380 9 -22 13 -35 7 -30 -5 6 -116 170 -247 365 -264 393 -560 826 -821 1202 l-171 246 106 31 c149 42 174 49 191 50 11 1 79 -119 212 -371z m1786 268 c75 -25 82 -30 83 -54 0 -15 4 -92 9 -172 9 -157 -1 -368 -24 -490 l-14 -75 -1 55 c-3 136 -47 362 -117 606 -50 174 -48 168 -31 162 6 -3 49 -17 95 -32z m473 -203 c55 -29 89 -53 89 -62 -1 -29 -69 -182 -125 -282 -31 -55 -58 -99 -60 -99 -1 0 2 19 7 43 10 42 4 334 -8 410 -3 20 -3 37 1 37 4 0 48 -21 96 -47z m-3589 -483 c74 -85 309 -360 523 -610 598 -700 906 -1050 1188 -1352 l129 -138 74 78 75 77 -5 -80 c-7 -108 -15 -132 -92 -265 -36 -63 -93 -170 -125 -238 -32 -68 -95 -178 -140 -245 -98 -145 -101 -153 -139 -313 -55 -231 -168 -738 -180 -804 -18 -108 -10 -100 -108 -99 -123 1 -143 -9 -210 -107 -53 -80 -97 -102 -227 -115 -116 -12 -199 -36 -264 -79 -27 -17 -102 -87 -166 -155 -129 -137 -187 -175 -300 -196 -73 -13 -120 -37 -161 -81 -41 -43 -59 -81 -128 -268 -32 -85 -80 -200 -107 -255 -26 -55 -52 -117 -56 -137 l-8 -37 -94 87 c-52 48 -145 143 -207 212 l-112 124 284 289 c156 159 284 295 284 301 0 16 -53 46 -82 46 -21 1 -21 2 -5 11 37 21 77 27 114 17 36 -10 38 -9 79 39 24 26 43 53 44 59 0 7 -15 25 -34 42 -40 35 -116 55 -179 47 -39 -5 -40 -4 -12 6 17 5 68 11 115 12 72 2 92 -2 130 -22 l45 -23 62 68 c35 37 60 70 57 73 -2 3 -307 8 -677 12 -370 4 -702 11 -739 15 l-67 7 -16 45 c-20 59 -19 63 8 57 46 -10 365 -35 697 -55 190 -11 449 -27 576 -36 127 -9 239 -14 247 -12 9 1 85 80 171 173 167 184 165 180 97 214 -80 40 -77 42 -190 -89 l-103 -120 -84 0 c-46 0 -84 2 -84 5 0 3 25 44 56 92 60 92 59 103 -3 103 -27 0 -200 27 -288 45 l-30 6 -45 -111 c-24 -61 -48 -114 -52 -116 -9 -6 -290 21 -418 39 l-85 13 3 74 c1 41 10 130 18 198 9 67 15 125 12 127 -2 3 -85 27 -184 55 -98 28 -254 76 -346 107 -160 54 -166 57 -172 86 -7 33 -8 87 -2 87 2 0 75 -21 162 -46 88 -25 366 -99 620 -164 660 -171 936 -253 1202 -359 l101 -41 53 56 c29 31 54 59 56 64 4 12 -91 69 -166 100 -37 15 -113 40 -169 55 -57 16 -101 30 -99 32 11 11 333 -65 431 -102 l64 -24 46 51 c25 27 45 53 45 57 0 3 -20 30 -45 58 -51 59 -141 121 -277 193 -51 27 -90 50 -85 50 25 0 321 -141 388 -187 l82 -54 51 57 c28 32 51 63 51 68 0 6 -52 42 -115 80 -310 187 -736 404 -1405 716 -501 233 -915 436 -915 448 0 6 5 33 12 61 l11 50 131 -70 c72 -38 376 -194 676 -346 911 -461 1247 -644 1592 -866 l57 -37 161 176 c88 97 159 181 157 188 -5 16 -105 96 -121 96 -7 0 -57 -51 -112 -113 l-99 -113 -107 61 c-59 33 -107 65 -107 70 0 6 29 48 65 94 36 46 62 87 57 91 -4 4 -100 67 -213 140 l-204 132 -23 -28 c-13 -16 -47 -64 -76 -106 -29 -43 -55 -77 -59 -78 -6 0 -360 202 -581 332 l-118 69 42 77 c24 42 71 124 106 181 35 57 63 107 63 111 0 5 -66 54 -147 111 -82 56 -304 212 -495 346 l-347 244 61 107 c86 151 242 382 259 382 5 0 52 -37 106 -83 54 -46 402 -337 773 -647 714 -597 1027 -860 1307 -1102 94 -81 176 -148 181 -148 13 0 123 121 120 131 -2 4 -64 62 -138 129 -74 68 -135 127 -135 133 0 5 7 14 16 20 12 7 29 1 72 -26 79 -51 151 -86 232 -114 l70 -24 67 73 c37 40 68 75 68 78 0 3 -40 18 -89 33 -72 21 -115 44 -220 113 l-130 87 -11 50 c-35 165 -232 419 -655 842 -555 557 -999 874 -1224 875 l-46 1 45 40 c92 81 212 183 273 229 l62 48 21 -21 c12 -12 82 -92 156 -177z m4086 -867 c29 -18 52 -70 52 -116 0 -71 -29 -126 -110 -206 -67 -66 -319 -374 -545 -666 -39 -49 -111 -130 -161 -180 -69 -68 -119 -132 -207 -265 -121 -181 -285 -379 -379 -457 -29 -24 -84 -59 -123 -79 -85 -45 -115 -70 -115 -100 0 -34 33 -47 109 -42 91 5 134 29 279 154 149 129 250 241 349 392 41 62 86 120 100 129 17 12 47 17 92 18 l66 0 1 65 c0 36 3 77 7 92 8 31 352 466 388 492 15 10 44 16 77 16 66 0 98 16 150 76 71 79 113 190 82 209 -12 7 -28 -11 -109 -125 -30 -41 -59 -78 -65 -82 -34 -23 -96 16 -96 60 0 26 21 53 132 170 77 81 103 89 137 46 12 -15 26 -44 32 -66 15 -56 -13 -141 -99 -298 -66 -120 -70 -126 -123 -152 -69 -35 -102 -73 -196 -228 -106 -174 -204 -320 -283 -420 -37 -47 -88 -119 -115 -160 -227 -351 -275 -412 -396 -501 -61 -45 -69 -56 -69 -84 0 -41 18 -56 73 -62 65 -7 121 27 182 111 99 137 171 221 252 293 93 82 113 88 178 48 68 -42 125 -32 125 21 0 29 -10 44 -60 94 -46 45 -60 66 -60 88 0 30 137 250 179 286 17 15 43 21 108 26 l85 5 44 49 c57 63 117 185 108 220 -15 61 -32 48 -115 -89 -68 -113 -98 -137 -126 -100 -25 35 -15 72 42 155 79 117 96 138 112 144 43 17 106 -77 106 -157 -1 -57 -19 -103 -158 -392 -95 -199 -131 -259 -211 -349 -60 -66 -123 -169 -139 -226 -4 -14 -36 -92 -72 -173 -43 -100 -70 -176 -80 -230 -28 -153 -72 -275 -174 -476 -138 -275 -253 -454 -420 -655 -93 -112 -165 -164 -489 -346 -268 -151 -338 -197 -470 -310 -98 -84 -292 -221 -367 -259 -129 -65 -250 -22 -364 131 -169 227 -236 489 -195 767 25 168 54 212 178 278 38 20 82 52 99 72 36 43 44 73 104 361 25 124 73 338 105 475 32 138 64 275 70 305 15 78 47 142 123 243 76 101 302 533 344 655 21 64 26 95 25 180 0 89 3 107 19 123 25 25 42 24 77 -6 41 -34 71 -112 84 -214 9 -76 9 -92 -7 -124 -26 -55 -129 -161 -188 -195 -88 -50 -135 -111 -205 -271 -51 -114 -62 -151 -60 -184 2 -29 8 -43 19 -45 25 -5 104 79 122 129 9 24 26 70 38 102 27 76 73 135 134 172 27 17 135 116 240 220 170 170 202 206 293 343 57 83 115 160 129 169 18 12 49 18 92 20 76 1 92 15 84 71 -6 47 7 63 116 140 46 33 132 107 191 166 96 95 111 106 143 106 74 0 73 -6 -15 -103 -131 -144 -219 -231 -289 -281 -77 -57 -70 -49 -219 -261 -140 -199 -305 -408 -381 -482 -30 -29 -92 -78 -139 -110 -67 -46 -86 -64 -88 -85 -3 -24 1 -28 39 -38 56 -15 119 -5 166 27 55 37 237 200 314 279 77 82 123 143 209 282 94 152 119 168 225 141 25 -6 57 -8 71 -5 26 7 27 8 20 68 -5 48 -2 69 13 104 25 56 344 450 385 475 23 14 50 19 104 19 89 0 139 22 183 83 43 58 81 145 73 169 -10 33 -37 16 -86 -56 -80 -116 -97 -128 -165 -110 -43 12 -35 41 49 166 100 149 132 168 206 121z m-440 -220 c-76 -112 -110 -139 -146 -117 -35 22 -24 44 64 134 76 78 92 90 121 90 l34 0 -73 -107z m-3263 13 c79 -36 208 -140 358 -285 199 -194 277 -303 255 -360 -10 -27 -56 -81 -69 -81 -6 0 -622 552 -699 626 l-24 24 49 50 c27 27 56 50 65 50 8 0 38 -11 65 -24z m4038 -369 c9 -30 17 -66 17 -82 0 -35 -48 -405 -56 -424 -6 -18 -68 66 -84 115 -14 43 -7 78 36 168 37 78 57 172 48 223 -6 31 0 53 14 53 4 0 15 -24 25 -53z m-71 -678 c23 -46 60 -301 62 -424 1 -71 -7 -143 -26 -245 -15 -80 -31 -182 -37 -228 -13 -104 -38 -166 -129 -319 -78 -129 -92 -165 -92 -227 0 -30 -19 -73 -79 -185 -72 -131 -86 -167 -140 -352 -109 -374 -135 -423 -335 -627 -178 -182 -195 -190 -278 -147 -68 36 -123 38 -149 6 -41 -50 -26 -75 114 -194 88 -75 90 -83 85 -277 -5 -154 -7 -171 -32 -226 -62 -136 -183 -204 -359 -204 -86 0 -166 22 -272 75 -170 84 -225 146 -225 253 0 105 100 225 263 315 156 86 285 204 384 352 49 74 113 199 210 414 89 199 127 263 203 342 56 59 59 61 96 55 104 -18 114 -18 139 -2 27 18 33 53 15 86 -6 11 -37 38 -70 60 -70 48 -73 61 -29 132 43 71 66 135 99 273 31 129 42 145 96 145 32 0 44 -8 166 -111 58 -49 79 -54 111 -28 20 15 27 29 27 56 0 31 -9 44 -60 94 -74 71 -84 94 -64 151 26 74 74 107 156 109 58 0 112 20 116 42 5 27 -24 65 -61 81 -73 30 -117 129 -82 182 23 35 73 54 143 54 95 0 110 43 29 82 -20 10 -44 29 -53 43 -36 55 -33 377 3 417 22 24 34 19 55 -23z m-5012 -662 c289 -145 595 -295 680 -335 85 -40 150 -72 144 -72 -27 0 -495 123 -684 180 -206 62 -697 225 -975 324 l-150 53 1 114 c0 63 4 140 8 172 l7 57 222 -115 c122 -64 458 -234 747 -378z m4709 62 c-19 -61 -53 -135 -84 -188 -46 -75 -56 -86 -80 -86 -40 0 -41 19 -5 52 20 17 63 88 113 188 44 88 82 154 84 148 3 -7 -10 -58 -28 -114z m-5141 -1674 c122 -16 380 -19 452 -5 25 4 46 7 48 5 3 -3 -160 -104 -248 -153 -66 -37 -216 -102 -235 -102 -13 0 -64 79 -144 223 -33 57 -33 58 -9 53 12 -3 74 -13 136 -21z m1911 -17 c29 -15 51 -36 63 -60 18 -33 18 -45 9 -107 -6 -38 -11 -126 -11 -194 0 -209 36 -361 135 -563 97 -199 210 -323 331 -361 88 -27 124 -79 110 -157 -12 -65 -148 -167 -281 -211 -192 -65 -433 -10 -570 129 -168 170 -265 544 -265 1011 0 267 39 367 183 472 102 75 202 89 296 41z m-635 -349 c14 -7 30 -25 36 -42 6 -18 10 -135 10 -292 0 -239 -2 -269 -21 -331 -38 -124 -123 -178 -194 -122 -62 49 -127 182 -140 290 -13 106 45 292 126 408 63 91 119 118 183 89z m2087 -750 c6 -24 28 -81 49 -125 52 -107 106 -157 204 -185 101 -29 122 -38 141 -60 25 -26 12 -46 -36 -59 -37 -10 -50 -9 -113 14 -86 32 -144 69 -214 138 -77 76 -104 134 -110 236 -4 70 -2 86 14 103 17 19 18 19 37 1 10 -11 23 -39 28 -63z" transform="translate(0.000000,900.000000) scale(0.100000,-0.100000)"/></g></svg>